<?xml version="1.0" encoding="UTF-8"?>
<svg width="25px" height="25px" viewBox="0 0 25 25" version="1.1" xmlns="http://www.w3.org/2000/svg" xmlns:xlink="http://www.w3.org/1999/xlink">
    <title>currency-usd-circle</title>
    <g id="Business-Registry-Homepage" stroke="none" stroke-width="1" fill="none" fill-rule="evenodd">
        <g id="01--BCROS-notloggedin" transform="translate(-688.000000, -1747.000000)">
            <g id="payment-type" transform="translate(150.000000, 1719.000000)">
                <g id="currency-usd-circle" transform="translate(538.000000, 28.000000)">
                    <path d="M12,-5.32907052e-16 C5.372583,-5.32907052e-16 0,5.372583 0,12 C0,18.627417 5.372583,24 12,24 C18.627417,24 24,18.627417 24,12 C24,8.81740212 22.7357179,5.76515517 20.4852814,3.51471863 C18.2348448,1.26428208 15.1825979,-5.32907052e-16 12,-5.32907052e-16 M15.6,9.6 L10.8,9.6 L10.8,10.8 L14.4,10.8 C15.0627417,10.8 15.6,11.3372583 15.6,12 L15.6,15.6 C15.6,16.2627417 15.0627417,16.8 14.4,16.8 L13.2,16.8 L13.2,18 L10.8,18 L10.8,16.8 L8.4,16.8 L8.4,14.4 L13.2,14.4 L13.2,13.2 L9.6,13.2 C8.9372583,13.2 8.4,12.6627417 8.4,12 L8.4,8.4 C8.4,7.7372583 8.9372583,7.2 9.6,7.2 L10.8,7.2 L10.8,6 L13.2,6 L13.2,7.2 L15.6,7.2 L15.6,9.6 Z" id="Shape" fill="#38598A" fill-rule="nonzero"></path>
                    <circle id="Oval" fill="#38598A" cx="12.5" cy="12.5" r="12.5"></circle>
                    <g id="currency-usd" transform="translate(8.000000, 5.000000)" fill="#FFFFFF" fill-rule="nonzero">
                        <path d="M0,10 L1.66666667,10 C1.66666667,10.9 2.80833333,11.6666667 4.16666667,11.6666667 C5.525,11.6666667 6.66666667,10.9 6.66666667,10 C6.66666667,9.08333333 5.8,8.75 3.96666667,8.30833333 C2.2,7.86666667 0,7.31666667 0,5 C0,3.50833333 1.225,2.24166667 2.91666667,1.81666667 L2.91666667,0 L5.41666667,0 L5.41666667,1.81666667 C7.10833333,2.24166667 8.33333333,3.50833333 8.33333333,5 L6.66666667,5 C6.66666667,4.1 5.525,3.33333333 4.16666667,3.33333333 C2.80833333,3.33333333 1.66666667,4.1 1.66666667,5 C1.66666667,5.91666667 2.53333333,6.25 4.36666667,6.69166667 C6.13333333,7.13333333 8.33333333,7.68333333 8.33333333,10 C8.33333333,11.4916667 7.10833333,12.7583333 5.41666667,13.1833333 L5.41666667,15 L2.91666667,15 L2.91666667,13.1833333 C1.225,12.7583333 0,11.4916667 0,10 Z" id="Path"></path>
                    </g>
                </g>
            </g>
        </g>
    </g>
</svg>