<?xml version="1.0" encoding="UTF-8"?>
<svg width="60px" height="60px" viewBox="0 0 60 60" version="1.1" xmlns="http://www.w3.org/2000/svg" xmlns:xlink="http://www.w3.org/1999/xlink">
    <title>file-document-box-search</title>
    <g id="Page-1" stroke="none" stroke-width="1" fill="none" fill-rule="evenodd">
        <g id="OPTA-PPRHome-FINAL" transform="translate(-329.000000, -2828.000000)">
            <g id="helpful-tips" transform="translate(1.000000, 2609.000000)">
                <g id="Trademarks" transform="translate(209.000000, 146.000000)">
                    <g id="file-document-box-search" transform="translate(119.000000, 73.000000)">
                        <circle id="Oval" fill="#38598A" cx="30" cy="30" r="30"></circle>
                        <path d="M33.6812163,30.4371424 C36.9507929,30.4371424 39.5664541,33.0528037 39.5664541,36.3223803 C39.5664541,37.4732712 39.2394965,38.5587706 38.664051,39.4611738 L42.6921694,43.5154487 L40.8742848,45.3333333 L36.7938532,41.3182933 C35.8914501,41.8806605 34.8190289,42.2076181 33.6812163,42.2076181 C30.4116397,42.2076181 27.7959784,39.5919568 27.7959784,36.3223803 C27.7959784,33.0528037 30.4116397,30.4371424 33.6812163,30.4371424 L33.6812163,30.4371424 Z M33.6812163,33.0528037 C31.875479,33.0528037 30.4116397,34.516643 30.4116397,36.3223803 C30.4116397,38.1281175 31.875479,39.5919568 33.6812163,39.5919568 C35.4869536,39.5919568 36.9507929,38.1281175 36.9507929,36.3223803 C36.9507929,34.516643 35.4869536,33.0528037 33.6812163,33.0528037 L33.6812163,33.0528037 Z M22.5646559,34.3606343 L22.5646559,36.9762956 L25.1803171,36.9762956 C25.3634134,39.0034331 26.2265817,40.8213176 27.5474906,42.2076181 L19.9489946,42.2076181 C18.4973026,42.2076181 17.3333333,41.0305705 17.3333333,39.5919568 L17.3333333,21.2823279 C17.3333333,19.8306359 18.4973026,18.6666667 19.9489946,18.6666667 L38.2586235,18.6666667 C39.7032133,18.6666667 40.8742848,19.8377381 40.8742848,21.2823279 L40.8742848,31.7842079 C39.3702795,29.4039562 36.7153834,27.8214811 33.6812163,27.8214811 C32.0202714,27.8214811 30.4639529,28.3053785 29.1561223,29.1293118 L22.5646559,29.1293118 L22.5646559,31.744973 L26.4881478,31.744973 C26.0173288,32.5296714 25.6249796,33.4189962 25.4026484,34.3606343 L22.5646559,34.3606343 L22.5646559,34.3606343 Z M35.6429622,26.5136505 L35.6429622,23.8979892 L22.5646559,23.8979892 L22.5646559,26.5136505 L35.6429622,26.5136505 Z" id="Shape" fill="#FFFFFF" fill-rule="nonzero"></path>
                    </g>
                </g>
            </g>
        </g>
    </g>
</svg>