<?xml version="1.0" encoding="UTF-8"?>
<svg width="60px" height="60px" viewBox="0 0 60 60" version="1.1" xmlns="http://www.w3.org/2000/svg" xmlns:xlink="http://www.w3.org/1999/xlink">
    <title>FPO icon</title>
    <g id="Page-1" stroke="none" stroke-width="1" fill="none" fill-rule="evenodd">
        <g id="OPTA-PPRHome-FINAL" transform="translate(-990.000000, -2827.000000)">
            <g id="helpful-tips" transform="translate(1.000000, 2609.000000)">
                <g id="Social-Media" transform="translate(869.000000, 145.000000)">
                    <g id="FPO-icon" transform="translate(120.000000, 73.000000)">
                        <circle id="Oval" fill="#38598A" cx="30" cy="30" r="30"></circle>
                        <g id="account-box-multiple-(1)" transform="translate(17.000000, 19.000000)" fill="#FFFFFF" fill-rule="nonzero">
                            <path d="M2.4,4.8 L0,4.8 L0,21.6 C0,22.9254834 1.0745166,24 2.4,24 L19.2,24 L19.2,21.6 L2.4,21.6 L2.4,4.8 M21.6,0 C22.9254834,0 24,1.0745166 24,2.4 L24,16.8 C24,18.1254834 22.9254834,19.2 21.6,19.2 L7.2,19.2 C5.8745166,19.2 4.8,18.1254834 4.8,16.8 L4.8,2.4 C4.8,1.0745166 5.8745166,0 7.2,0 L21.6,0 M18,6 C18,4.0117749 16.3882251,2.4 14.4,2.4 C12.4117749,2.4 10.8,4.0117749 10.8,6 C10.8,7.9882251 12.4117749,9.6 14.4,9.6 C16.3882251,9.6 18,7.9882251 18,6 M7.2,15.6 L7.2,16.8 L21.6,16.8 L21.6,15.6 C21.6,13.2 16.8,11.88 14.4,11.88 C12,11.88 7.2,13.2 7.2,15.6 Z" id="Shape"></path>
                        </g>
                    </g>
                </g>
            </g>
        </g>
    </g>
</svg>