<?xml version="1.0" encoding="UTF-8"?>
<svg width="41px" height="37px" viewBox="0 0 41 37" version="1.1" xmlns="http://www.w3.org/2000/svg" xmlns:xlink="http://www.w3.org/1999/xlink">
    <title>monitor-dashboard</title>
    <defs>
        <filter color-interpolation-filters="auto" id="filter-1">
            <feColorMatrix in="SourceGraphic" type="matrix" values="0 0 0 0 0.219608 0 0 0 0 0.349020 0 0 0 0 0.541176 0 0 0 1.000000 0"></feColorMatrix>
        </filter>
    </defs>
    <g id="Page-1" stroke="none" stroke-width="1" fill="none" fill-rule="evenodd">
        <g id="OPTA-PPRHome-FINAL" transform="translate(-513.000000, -902.000000)">
            <g id="monitor-dashboard" transform="translate(0.000000, 680.000000)" filter="url(#filter-1)">
                <g transform="translate(513.000000, 222.000000)">
                    <path d="M37.2727273,25.9 L37.2727273,3.7 L3.72727273,3.7 L3.72727273,25.9 L37.2727273,25.9 M37.2727273,0 C39.3312432,0 41,1.65654643 41,3.7 L41,25.9 C41,27.9434536 39.3312432,29.6 37.2727273,29.6 L24.2272727,29.6 L24.2272727,33.3 L27.9545455,33.3 L27.9545455,37 L13.0454545,37 L13.0454545,33.3 L16.7727273,33.3 L16.7727273,29.6 L3.72727273,29.6 C1.65863636,29.6 0,27.935 0,25.9 L0,3.7 C0,1.6465 1.65863636,0 3.72727273,0 L37.2727273,0 M7.45454545,7.4 L24.2272727,7.4 L24.2272727,16.65 L7.45454545,16.65 L7.45454545,7.4 M26.0909091,7.4 L33.5454545,7.4 L33.5454545,11.1 L26.0909091,11.1 L26.0909091,7.4 M33.5454545,12.95 L33.5454545,22.2 L26.0909091,22.2 L26.0909091,12.95 L33.5454545,12.95 M7.45454545,18.5 L14.9090909,18.5 L14.9090909,22.2 L7.45454545,22.2 L7.45454545,18.5 M16.7727273,18.5 L24.2272727,18.5 L24.2272727,22.2 L16.7727273,22.2 L16.7727273,18.5 Z" id="Shape" fill="#000000" fill-rule="nonzero"></path>
                </g>
            </g>
        </g>
    </g>
</svg>