<?xml version="1.0" encoding="UTF-8"?>
<svg width="38px" height="36px" viewBox="0 0 38 36" version="1.1" xmlns="http://www.w3.org/2000/svg" xmlns:xlink="http://www.w3.org/1999/xlink">
    <title>table-search</title>
    <defs>
        <filter color-interpolation-filters="auto" id="filter-1">
            <feColorMatrix in="SourceGraphic" type="matrix" values="0 0 0 0 0.219608 0 0 0 0 0.349020 0 0 0 0 0.541176 0 0 0 1.000000 0"></feColorMatrix>
        </filter>
    </defs>
    <g id="Page-1" stroke="none" stroke-width="1" fill="none" fill-rule="evenodd">
        <g id="OPTA-PPRHome-FINAL" transform="translate(-205.000000, -906.000000)">
            <g id="table-search" transform="translate(0.000000, 680.000000)" filter="url(#filter-1)">
                <g transform="translate(205.000000, 226.000000)">
                    <path d="M31.8988612,27.1908646 C34.4820819,23.0799347 33.268751,17.6182708 29.1395119,15.0342577 C25.0298426,12.4502447 19.5698535,13.7030995 16.9866328,17.7944535 C14.4034122,21.9249592 15.6558828,27.406199 19.7459822,29.9510604 C22.6227507,31.7520392 26.2627434,31.7520392 29.1395119,29.9510604 L35.2257363,36 L37.9459459,33.278956 L31.8988612,27.1908646 M27.9848905,25.9771615 C26.0670449,27.8955954 22.975008,27.8760196 21.0571624,25.9771615 C19.1588866,24.0587276 19.1588866,20.9657423 21.0767322,19.0473083 C22.975008,17.1484502 26.0670449,17.1484502 27.9848905,19.0473083 C29.8635964,20.9853181 29.8440266,24.0783034 27.926181,25.9771615 L27.9848905,25.9771615 M31.3117656,0 L3.9139707,0 C1.75234437,0 0,1.75288189 0,3.91517129 L0,27.406199 C0,29.5684884 1.75234437,31.3213703 3.9139707,31.3213703 L15.2840556,31.3213703 C14.1881438,30.1859706 13.3075004,28.8548124 12.7204048,27.406199 L3.9139707,27.406199 L3.9139707,19.5758564 L12.0941695,19.5758564 C12.4072871,18.1859706 12.9356732,16.8548124 13.6988975,15.6606852 L3.9139707,15.6606852 L3.9139707,7.83034258 L15.6558828,7.83034258 L15.6558828,13.3311582 C16.7909343,12.2349103 18.1216843,11.3539967 19.5698535,10.766721 L19.5698535,7.83034258 L31.3117656,7.83034258 L31.3117656,11.7455139 C32.0945597,12.2349103 32.8186443,12.822186 33.4644495,13.4681892 C34.1298245,14.1337684 34.7169201,14.858075 35.2257363,15.6606852 L35.2257363,3.91517129 C35.2257363,1.75288189 33.4733919,0 31.3117656,0 Z" id="Shape" fill="#000000" fill-rule="nonzero"></path>
                </g>
            </g>
        </g>
    </g>
</svg>