<?xml version="1.0" encoding="UTF-8"?>
<svg width="41px" height="33px" viewBox="0 0 41 33" version="1.1" xmlns="http://www.w3.org/2000/svg" xmlns:xlink="http://www.w3.org/1999/xlink">
    <title>table-key</title>
    <defs>
        <filter color-interpolation-filters="auto" id="filter-1">
            <feColorMatrix in="SourceGraphic" type="matrix" values="0 0 0 0 0.219608 0 0 0 0 0.349020 0 0 0 0 0.541176 0 0 0 1.000000 0"></feColorMatrix>
        </filter>
    </defs>
    <g id="Page-1" stroke="none" stroke-width="1" fill="none" fill-rule="evenodd">
        <g id="OPTA-PPRHome-FINAL" transform="translate(-1138.000000, -906.000000)">
            <g id="Coming-Soon" transform="translate(0.000000, 680.000000)">
                <g id="table-key" transform="translate(1033.000000, 226.000000)" filter="url(#filter-1)">
                    <g transform="translate(105.000000, 0.000000)">
                        <path d="M28.8952381,25.2352941 C28.1142857,22.9058824 25.9666667,21.3529412 23.4285714,21.3529412 C20.1095238,21.3529412 17.5714286,23.8764706 17.5714286,27.1764706 C17.5714286,30.4764706 20.1095238,33 23.4285714,33 C25.9666667,33 28.1142857,31.4470588 28.8952381,29.1176471 L33.1904762,29.1176471 L33.1904762,33 L37.0952381,33 L37.0952381,29.1176471 L41,29.1176471 L41,25.2352941 L28.8952381,25.2352941 M23.4285714,29.1176471 C22.2571429,29.1176471 21.4761905,28.1470588 21.4761905,27.1764706 C21.4761905,26.2058824 22.2571429,25.2352941 23.4285714,25.2352941 C24.6,25.2352941 25.3809524,26.2058824 25.3809524,27.1764706 C25.3809524,28.1470588 24.6,29.1176471 23.4285714,29.1176471 M13.6666667,27.1764706 L3.9047619,27.1764706 L3.9047619,19.4117647 L15.6190476,19.4117647 L15.6190476,21.3529412 C17.3761905,19.0235294 20.3047619,17.4705882 23.4285714,17.4705882 C25.5761905,17.4705882 27.5285714,18.2470588 29.2857143,19.4117647 L31.2380952,19.4117647 L31.2380952,21.3529412 L35.1428571,21.3529412 L35.1428571,3.88235294 C35.1428571,1.74705882 33.3857143,0 31.2380952,0 L3.9047619,0 C1.75714286,0 0,1.74705882 0,3.88235294 L0,27.1764706 C0,29.3117647 1.75714286,31.0588235 3.9047619,31.0588235 L14.447619,31.0588235 C13.8619048,29.8941176 13.6666667,28.5352941 13.6666667,27.1764706 M19.5238095,7.76470588 L31.2380952,7.76470588 L31.2380952,15.5294118 L19.5238095,15.5294118 L19.5238095,7.76470588 M3.9047619,7.76470588 L15.6190476,7.76470588 L15.6190476,15.5294118 L3.9047619,15.5294118 L3.9047619,7.76470588 Z" id="Shape" fill="#000000" fill-rule="nonzero"></path>
                    </g>
                </g>
            </g>
        </g>
    </g>
</svg>