<?xml version="1.0" encoding="UTF-8"?>
<svg width="60px" height="60px" viewBox="0 0 60 60" version="1.1" xmlns="http://www.w3.org/2000/svg" xmlns:xlink="http://www.w3.org/1999/xlink">
    <title>Group 3</title>
    <defs>
        <filter color-interpolation-filters="auto" id="filter-1">
            <feColorMatrix in="SourceGraphic" type="matrix" values="0 0 0 0 1.000000 0 0 0 0 1.000000 0 0 0 0 1.000000 0 0 0 1.000000 0"></feColorMatrix>
        </filter>
    </defs>
    <g id="Page-1" stroke="none" stroke-width="1" fill="none" fill-rule="evenodd">
        <g id="OPTA-PPRHome-FINAL" transform="translate(-661.000000, -2828.000000)">
            <g id="helpful-tips" transform="translate(1.000000, 2609.000000)">
                <g id="Domains" transform="translate(539.000000, 146.000000)">
                    <g id="Group-3" transform="translate(121.000000, 73.000000)">
                        <circle id="Oval" fill="#38598A" cx="30" cy="30" r="30"></circle>
                        <g filter="url(#filter-1)" id="car-wrench">
                            <g transform="translate(16.000000, 17.000000)">
                                <path d="M26.0415109,18.3449546 C26.0560106,18.1239311 26.0995098,17.9029075 26.0995098,17.681884 L26.0995098,18.4186291 L26.0415109,18.3449546 M11.5997821,17.681884 C11.5997821,18.7280621 11.8172781,19.7300355 12.2087707,20.6288646 L4.3499183,20.6288646 L4.3499183,22.102355 C4.3499183,22.9127746 3.69743056,23.5758453 2.89994554,23.5758453 L1.44997277,23.5758453 C0.652487745,23.5758453 0,22.9127746 0,22.102355 L0,10.3144323 L3.01594336,1.47349033 C3.30593791,0.618865939 4.11792266,0 5.07490469,0 L21.0246051,0 C21.9815872,0 22.7935719,0.618865939 23.0835665,1.47349033 L26.0995098,10.3144323 L26.0995098,17.681884 C26.0995098,13.6150507 22.8515708,10.3144323 18.849646,10.3144323 C14.8477211,10.3144323 11.5997821,13.6150507 11.5997821,17.681884 M7.24986384,13.9981581 C7.24986384,12.7751612 6.27838208,11.7879226 5.07490469,11.7879226 C3.87142729,11.7879226 2.89994554,12.7751612 2.89994554,13.9981581 C2.89994554,15.2211551 3.87142729,16.2083936 5.07490469,16.2083936 C6.27838208,16.2083936 7.24986384,15.2211551 7.24986384,13.9981581 M23.1995643,8.84094198 L21.0246051,2.2102355 L5.07490469,2.2102355 L2.89994554,8.84094198 L23.1995643,8.84094198 M28.8109589,25.3292988 L22.8515708,19.2732535 C23.4460597,17.7408236 23.1125659,15.9431654 21.8655893,14.6906986 C20.5606138,13.3498224 18.6031506,13.0845941 17.0226803,13.8213393 L19.8356275,16.6799105 L17.8781642,18.6838574 L14.9927184,15.8105512 C14.2097331,17.4166557 14.5722263,19.4058676 15.8482023,20.7467438 C17.0951789,22.0139455 18.849646,22.3381134 20.3721174,21.7487173 L26.3315055,27.7900276 C26.5925006,28.0699908 26.9839932,28.0699908 27.2449883,27.7900276 L28.75296,26.2723326 C29.071954,26.0071043 29.071954,25.5355874 28.8109589,25.3292988 Z" id="Shape" fill="#000000" fill-rule="nonzero"></path>
                            </g>
                        </g>
                    </g>
                </g>
            </g>
        </g>
    </g>
</svg>